HIERARCHY
ROOT Hips
{
	OFFSET 0.000000 0.000000 0.000000
	CHANNELS 6 Xposition Yposition Zposition Xrotation Yrotation Zrotation
	JOINT LeftUpLeg_virtual
	{
		OFFSET 0.000000 0.000000 0.000000
		CHANNELS 3 Xrotation Yrotation Zrotation
		JOINT LeftUpLeg
		{
			OFFSET 13.026900 -6.336304 -1.092800
			CHANNELS 3 Xrotation Yrotation Zrotation
			JOINT LeftLeg
			{
				OFFSET 0.524474 -46.096886 9.782700
				CHANNELS 3 Xrotation Yrotation Zrotation
				JOINT LeftFoot
				{
					OFFSET -0.524474 -53.427422 -12.948200
					CHANNELS 3 Xrotation Yrotation Zrotation
					JOINT LeftToeBase
					{
						OFFSET 0.192200 -14.009700 16.364100
						CHANNELS 3 Xrotation Yrotation Zrotation
						JOINT LeftToe_End
						{
							OFFSET -1.784700 -0.561700 9.474800
							CHANNELS 3 Xrotation Yrotation Zrotation
							End Site
							{
								OFFSET 0 0 0
							}
						}
					}
				}
			}
		}
	}
	JOINT RightUpLeg_virtual
	{
		OFFSET 0.000000 0.000000 0.000000
		CHANNELS 3 Xrotation Yrotation Zrotation
		JOINT RightUpLeg
		{
			OFFSET -12.883000 -6.336304 -1.092800
			CHANNELS 3 Xrotation Yrotation Zrotation
			JOINT RightLeg
			{
				OFFSET -0.524587 -46.096825 9.782800
				CHANNELS 3 Xrotation Yrotation Zrotation
				JOINT RightFoot
				{
					OFFSET 0.524587 -53.427383 -12.948300
					CHANNELS 3 Xrotation Yrotation Zrotation
					JOINT RightToeBase
					{
						OFFSET -0.192200 -14.009700 16.364100
						CHANNELS 3 Xrotation Yrotation Zrotation
						JOINT RightToe_End
						{
							OFFSET 1.784700 -0.561700 9.474800
							CHANNELS 3 Xrotation Yrotation Zrotation
							End Site
							{
								OFFSET 0 0 0
							}
						}
					}
				}
			}
		}
	}
	JOINT Spine_virtual
	{
		OFFSET 0.000000 0.000000 0.000000
		CHANNELS 3 Xrotation Yrotation Zrotation
		JOINT Spine
		{
			OFFSET 0.072000 7.257294 -0.789700
			CHANNELS 3 Xrotation Yrotation Zrotation
			JOINT Spine1
			{
				OFFSET 0.000000 12.508769 -0.658067
				CHANNELS 3 Xrotation Yrotation Zrotation
				JOINT Spine1_split
				{
					OFFSET 0.000000 12.508769 -0.658067
					CHANNELS 3 Xrotation Yrotation Zrotation
					JOINT Spine2
					{
						OFFSET 0.000000 12.508769 -0.658067
						CHANNELS 3 Xrotation Yrotation Zrotation
						JOINT Neck_virtual
						{
							OFFSET 0.000000 0.000000 0.000000
							CHANNELS 3 Xrotation Yrotation Zrotation
							JOINT Neck
							{
								OFFSET 0.000000 14.033295 7.520400
								CHANNELS 3 Xrotation Yrotation Zrotation
								JOINT Head
								{
									OFFSET 0.000000 8.198502 5.703100
									CHANNELS 3 Xrotation Yrotation Zrotation
									JOINT HeadTop_End
									{
										OFFSET 0.000000 17.760803 13.332701
										CHANNELS 3 Xrotation Yrotation Zrotation
										End Site
										{
											OFFSET 0 0 0
										}
									}
								}
							}
						}
						JOINT LeftShoulder_virtual
						{
							OFFSET 0.000000 0.000000 0.000000
							CHANNELS 3 Xrotation Yrotation Zrotation
							JOINT LeftShoulder
							{
								OFFSET 6.292450 5.785301 -0.669000
								CHANNELS 3 Xrotation Yrotation Zrotation
								JOINT LeftShoulder_split
								{
									OFFSET 6.292450 5.785301 -0.669000
									CHANNELS 3 Xrotation Yrotation Zrotation
									JOINT LeftArm
									{
										OFFSET 13.907140 -6.093903 1.965100
										CHANNELS 3 Xrotation Yrotation Zrotation
										JOINT LeftForeArm
										{
											OFFSET 34.140198 0.000000 0.000000
											CHANNELS 3 Xrotation Yrotation Zrotation
											JOINT LeftHand
											{
												OFFSET 40.960209 0.000000 0.000000
												CHANNELS 3 Xrotation Yrotation Zrotation
												End Site
												{
													OFFSET 0 0 0
												}
											}
										}
									}
								}
							}
						}
						JOINT RightShoulder_virtual
						{
							OFFSET 0.000000 0.000000 0.000000
							CHANNELS 3 Xrotation Yrotation Zrotation
							JOINT RightShoulder
							{
								OFFSET -6.292450 5.785301 -0.669000
								CHANNELS 3 Xrotation Yrotation Zrotation
								JOINT RightShoulder_split
								{
									OFFSET -6.292450 5.785301 -0.669000
									CHANNELS 3 Xrotation Yrotation Zrotation
									JOINT RightArm
									{
										OFFSET -13.907140 -6.093903 1.965100
										CHANNELS 3 Xrotation Yrotation Zrotation
										JOINT RightForeArm
										{
											OFFSET -34.140198 0.000000 0.000000
											CHANNELS 3 Xrotation Yrotation Zrotation
											JOINT RightHand
											{
												OFFSET -40.960209 0.000000 0.000000
												CHANNELS 3 Xrotation Yrotation Zrotation
												End Site
												{
													OFFSET 0 0 0
												}
											}
										}
									}
								}
							}
						}
					}
				}
			}
		}
	}
}
MOTION
Frames: 6
Frame Time: 0.03333333
0.798214 134.459488 -1.436951 0.000000 0.000000 0.000000 -91.917360 1.639227 4.339171 -0.504559 14.785106 12.405852 1.248920 7.205106 3.870063 36.725425 27.832937 -29.888645 -8.224233 0.000007 -0.000016 0.000000 0.000000 0.000000 -91.917360 1.639227 4.339171 -2.993607 -18.617122 -16.057380 1.376136 -6.560669 -7.881738 36.134689 -29.959645 30.684352 -3.042987 -0.000001 -0.000002 0.000000 0.000000 0.000000 -91.917360 1.639227 4.339171 4.433883 -0.722577 0.431068 5.862054 -1.735557 -1.283443 0.000000 0.000000 0.000000 0.000000 0.000000 0.000000 5.939533 -1.793968 -1.101335 -6.604899 -0.552703 1.640554 -11.607393 -2.627596 2.287790 0.000000 0.000000 0.000000 5.939533 -1.793968 -1.101335 0.874487 1.281659 -8.030044 0.000000 0.000000 0.000000 36.402084 -29.821706 -36.915622 -0.001218 -86.066517 -0.001202 0.000000 0.000000 0.000000 5.939533 -1.793968 -1.101335 1.034982 -2.343017 19.424771 0.000000 0.000000 0.000000 -34.810554 53.354071 51.928255 -179.999855 77.240601 179.999868 0.000000 0.000000 0.000000 
0.745787 134.482468 -1.770256 0.000000 0.000000 0.000000 -92.610118 1.437479 4.433041 0.528778 15.216963 12.286047 1.112680 7.290529 4.048277 36.654299 28.612764 -29.976771 -8.533126 0.000005 0.000007 0.000000 0.000000 0.000000 -92.610118 1.437479 4.433041 -2.559255 -19.263538 -16.561433 1.424273 -6.264291 -7.331295 36.027755 -29.943375 30.590150 -2.926717 -0.000008 -0.000013 0.000000 0.000000 0.000000 -92.610118 1.437479 4.433041 4.271692 -0.732469 0.306195 5.662835 -1.787561 -1.408119 0.000000 0.000000 0.000000 0.000000 0.000000 0.000000 5.682633 -1.863436 -1.213450 -7.406071 -0.581397 1.811092 -13.802503 -2.716338 2.653906 0.000000 0.000000 0.000000 5.682633 -1.863436 -1.213450 0.833464 0.643752 -7.065388 0.000000 0.000000 0.000000 35.730902 -29.399969 -39.106043 -0.000636 -86.008747 -0.000584 0.000000 0.000000 0.000000 5.682633 -1.863436 -1.213450 1.050846 -2.047991 18.147317 0.000000 0.000000 0.000000 -39.666074 52.653409 55.025879 -179.999923 79.735191 179.999937 0.000000 0.000000 0.000000 
0.716515 134.462250 -1.986328 0.000000 0.000000 0.000000 -92.969332 1.265724 4.389255 1.329094 15.448495 12.307121 1.272701 7.273579 4.219356 36.785466 29.654175 -30.799365 -8.606435 -0.000022 -0.000020 0.000000 0.000000 0.000000 -92.969332 1.265724 4.389255 -2.417398 -19.676762 -16.773797 1.558428 -6.048965 -7.103588 36.669663 -29.940769 30.569082 -3.401727 -0.000001 0.000002 0.000000 0.000000 0.000000 -92.969332 1.265724 4.389255 4.227926 -0.708989 0.245929 5.498833 -1.756072 -1.456301 0.000000 0.000000 0.000000 0.000000 0.000000 0.000000 5.557735 -1.836371 -1.256271 -7.364459 -0.607705 1.904432 -14.429620 -2.818834 2.924229 0.000000 0.000000 0.000000 5.557735 -1.836371 -1.256271 0.752577 0.149307 -6.556119 0.000000 0.000000 0.000000 35.791670 -29.405580 -39.728471 0.000728 -85.965608 0.000671 0.000000 0.000000 0.000000 5.557735 -1.836371 -1.256271 1.031407 -1.759338 17.391859 0.000000 0.000000 0.000000 -42.645150 51.582084 56.777092 179.999800 82.161705 -179.999841 0.000000 0.000000 0.000000 
0.683876 134.463470 -2.001625 0.000000 0.000000 0.000000 -92.929450 1.129030 4.259575 1.518807 15.405391 12.391944 1.509849 7.219269 4.389500 37.013413 29.632458 -30.732163 -8.483588 0.000010 0.000000 0.000000 0.000000 0.000000 -92.929450 1.129030 4.259575 -2.455401 -19.753086 -16.693872 1.622857 -5.865168 -7.113518 37.408427 -29.953665 30.590822 -4.074179 -0.000020 -0.000026 0.000000 0.000000 0.000000 -92.929450 1.129030 4.259575 4.265535 -0.674113 0.265524 5.555462 -1.676085 -1.446812 0.000000 0.000000 0.000000 0.000000 0.000000 0.000000 5.614033 -1.763747 -1.275981 -6.848941 -0.568002 1.851872 -12.821033 -2.678194 3.067695 0.000000 0.000000 0.000000 5.614033 -1.763747 -1.275981 0.758815 0.358507 -6.445957 0.000000 0.000000 0.000000 35.602037 -29.770636 -39.668701 0.000550 -85.806560 0.000503 0.000000 0.000000 0.000000 5.614033 -1.763747 -1.275981 1.056720 -1.497105 16.955120 0.000000 0.000000 0.000000 -42.526247 51.008706 56.077069 -179.999732 83.699829 179.999718 0.000000 0.000000 0.000000 
0.630577 134.488281 -1.879845 0.000000 0.000000 0.000000 -92.555374 1.012477 4.119716 1.089390 15.164471 12.457410 1.658394 7.152924 4.544104 37.300309 29.620229 -30.671504 -8.573161 0.000015 -0.000005 0.000000 0.000000 0.000000 -92.555374 1.012477 4.119716 -2.781883 -19.662706 -16.457920 1.625479 -5.768759 -7.255337 38.339313 -29.965136 30.619236 -4.653011 -0.000003 -0.000006 0.000000 0.000000 0.000000 -92.555374 1.012477 4.119716 4.355034 -0.636440 0.310150 5.741221 -1.614428 -1.434077 0.000000 0.000000 0.000000 0.000000 0.000000 0.000000 5.800139 -1.697063 -1.268541 -5.813805 -0.457860 1.634100 -9.967906 -2.375743 3.043690 0.000000 0.000000 0.000000 5.800139 -1.697063 -1.268541 0.730852 0.865164 -6.431356 0.000000 0.000000 0.000000 35.443569 -30.401835 -39.212369 0.000826 -85.600739 0.000778 0.000000 0.000000 0.000000 5.800139 -1.697063 -1.268541 1.005612 -1.118332 16.941364 0.000000 0.000000 0.000000 -37.746556 51.194508 51.832929 -179.999172 83.449312 179.999226 0.000000 0.000000 0.000000 
0.556542 134.497528 -1.697906 0.000000 0.000000 0.000000 -92.062522 0.878316 3.966985 0.348532 14.928014 12.544647 1.731813 7.081368 4.673944 37.590906 29.615656 -30.630752 -8.226427 -0.000013 -0.000004 0.000000 0.000000 0.000000 -92.062522 0.878316 3.966985 -3.213343 -19.380944 -16.173599 1.643782 -5.667429 -7.319185 39.236486 -29.966724 30.623112 -4.783476 -0.000020 0.000002 0.000000 0.000000 0.000000 -92.062522 0.878316 3.966985 4.505345 -0.603545 0.347757 6.044136 -1.541179 -1.394171 0.000000 0.000000 0.000000 0.000000 0.000000 0.000000 6.102985 -1.620215 -1.248981 -4.187084 -0.298490 1.291639 -5.668986 -1.984164 2.855304 0.000000 0.000000 0.000000 6.102985 -1.620215 -1.248981 0.699592 1.457132 -6.484407 0.000000 0.000000 0.000000 35.346058 -31.215815 -38.384574 0.001060 -85.376067 0.000939 0.000000 0.000000 0.000000 6.102985 -1.620215 -1.248981 1.019978 -0.900253 17.096218 0.000000 0.000000 0.000000 -29.524756 51.442731 45.730005 -179.999732 81.974004 179.999745 0.000000 0.000000 0.000000 
